<?xml version="1.0" standalone="no"?><!DOCTYPE svg PUBLIC "-//W3C//DTD SVG 1.1//EN" "http://www.w3.org/Graphics/SVG/1.1/DTD/svg11.dtd"><svg t="1602653013346" class="icon" viewBox="0 0 1024 1024" version="1.1" xmlns="http://www.w3.org/2000/svg" p-id="6013" width="16" height="16" xmlns:xlink="http://www.w3.org/1999/xlink"><defs><style type="text/css"></style></defs><path d="M727 676.05a36.11 36.11 0 0 1 0 50.95 36.11 36.11 0 0 1-50.91 0L512 562.91 348 727a36.11 36.11 0 0 1-51 0 36.11 36.11 0 0 1 0-50.91l164-164L297 348a36.11 36.11 0 0 1 0-51 36.11 36.11 0 0 1 51 0l164 164.09 164-164a36.11 36.11 0 0 1 51-0.09 36.11 36.11 0 0 1 0 51L562.91 512z" p-id="6014" fill="#C8C8C8"></path></svg>